# xmcd
#
# Track frame offsets:
#	150
#	18419
#	39433
#	60077
#	84206
#	108490
#	130728
#	151131
#	170697
#	189182
#	221767
#	243316
#	263911
#
# Disc length: 3838 seconds
#
# Revision: 0
# Processed by: cddbd v1.5.2PL0 Copyright (c) Steve Scherf et al.
# Submitted via: EasyCDDAExtractor 11.0.3.1
#
DISCID=9d0efc0d
DTITLE=Freddie Jackson - Freddie's Greatest Hits (FF)
DYEAR=2006
DGENRE=R&B
TTITLE0=I Could Use A Little Love 
TTITLE1=Don't Wanna To Lose Your Love
TTITLE2=Jam Tonight
TTITLE3=Love Is Just A Touch Away
TTITLE4=Love Me Down
TTITLE5=Main Course
TTITLE6=More Than Friends
TTITLE7=Nice and Slow
TTITLE8=Rock Me Tonight
TTITLE9=Tasty Love
TTITLE10=You Are My Lady
TTITLE11=Come To Me (Never Alone)
TTITLE12=Love Is Just A Touch Away
EXTD=
EXTT0=
EXTT1=
EXTT2=
EXTT3=
EXTT4=
EXTT5=
EXTT6=
EXTT7=
EXTT8=
EXTT9=
EXTT10=
EXTT11=
EXTT12=
PLAYORDER=
